# xmcd
#
# Track frame offsets:
#	150
#	17323
#	34267
#	50613
#	66645
#	80350
#	98310
#	113142
#	131631
#	145326
#	157869
#	174191
#
# Disc length: 2536 seconds
#
# Revision: 0
# Processed by: cddbd v1.5.1PL2 Copyright (c) Steve Scherf et al.
# Submitted via: EasyCDDAExtractor 9.0.0.1
#
DISCID=9109e60c
DTITLE=Delbert McClinton - Room To Breathe
DYEAR=2002
DGENRE=Country
TTITLE0=Same Kind Of Crazy
TTITLE1=Smooth Talk
TTITLE2=Jungle Room
TTITLE3=Everything I Know About The Blues
TTITLE4=Blues About You
TTITLE5=Lone Star Blues
TTITLE6=The Rub
TTITLE7=Won't Be Me
TTITLE8=Don't Want To Love You
TTITLE9=Ain't Lost Nothin'
TTITLE10=Money Honey
TTITLE11=New York City
EXTD=
EXTT0=
EXTT1=
EXTT2=
EXTT3=
EXTT4=
EXTT5=
EXTT6=
EXTT7=
EXTT8=
EXTT9=
EXTT10=
EXTT11=
PLAYORDER=
